<svg xmlns="http://www.w3.org/2000/svg" version="1.1" xmlns:xlink="http://www.w3.org/1999/xlink" xmlns:svgjs="http://svgjs.dev/svgjs" width="1500" height="1136" viewBox="0 0 1500 1136"><g transform="matrix(1,0,0,1,-0.2135311323932001,0.4599190283400958)"><svg viewBox="0 0 326 247" data-background-color="#ffffff" preserveAspectRatio="xMidYMid meet" height="1136" width="1500" xmlns="http://www.w3.org/2000/svg" xmlns:xlink="http://www.w3.org/1999/xlink"><g id="tight-bounds" transform="matrix(1,0,0,1,0.0464074327734636,-0.09999999999999432)"><svg viewBox="0 0 325.9071851344531 247.2" height="247.2" width="325.9071851344531"><g><svg viewBox="0 0 395.5199999999999 300.0011919334147" height="247.2" width="325.9071851344531"><g transform="matrix(1,0,0,1,0,223.21567829441292)"><svg viewBox="0 0 395.5199999999999 76.78551363900175" height="76.78551363900175" width="395.5199999999999"><g id="textblocktransform"><svg viewBox="0 0 395.5199999999999 76.78551363900175" height="76.78551363900175" width="395.5199999999999" id="textblock"><g><svg viewBox="0 0 395.5199999999999 76.78551363900175" height="76.78551363900175" width="395.5199999999999"><g transform="matrix(1,0,0,1,0,0)"><svg width="395.5199999999999" viewBox="4.15 -32.75 172.28 33.45" height="76.78551363900175" data-palette-color="#6f605b"><path d="M4.15-1.55L4.15-13.2 8.15-12.6 8.15-0.1Q7.9 0 7.4 0.13 6.9 0.25 6.3 0.25L6.3 0.25Q5.25 0.25 4.7-0.18 4.15-0.6 4.15-1.55L4.15-1.55ZM8.15-30.95L8.15-10.7 4.15-11.25 4.15-32.4Q4.4-32.5 4.93-32.63 5.45-32.75 6-32.75L6-32.75Q7.1-32.75 7.63-32.33 8.15-31.9 8.15-30.95L8.15-30.95ZM24.3-2.6L24.3-2.6 24.3-2.6Q26.4-2.6 27.77-3.03 29.15-3.45 29.75-3.85L29.75-3.85 29.75-11.1 23.55-10.45Q20.95-10.25 19.7-9.3 18.45-8.35 18.45-6.55L18.45-6.55Q18.45-4.7 19.92-3.65 21.4-2.6 24.3-2.6ZM24.25-23.75L24.25-23.75 24.25-23.75Q28.6-23.75 31.15-21.8 33.7-19.85 33.7-15.65L33.7-15.65 33.7-3.8Q33.7-2.7 33.27-2.13 32.85-1.55 32-1.05L32-1.05Q30.8-0.4 28.8 0.15 26.8 0.7 24.3 0.7L24.3 0.7Q19.6 0.7 17.02-1.15 14.45-3 14.45-6.5L14.45-6.5Q14.45-9.75 16.62-11.48 18.8-13.2 22.65-13.55L22.65-13.55 29.75-14.25 29.75-15.65Q29.75-18.15 28.25-19.3 26.75-20.45 24.2-20.45L24.2-20.45Q22.15-20.45 20.27-19.85 18.4-19.25 16.95-18.5L16.95-18.5Q16.55-18.85 16.22-19.33 15.9-19.8 15.9-20.3L15.9-20.3Q15.9-21.6 17.35-22.3L17.35-22.3Q18.7-23 20.47-23.38 22.25-23.75 24.25-23.75ZM41.05-6.05L41.05-13.2 45.05-13.2 45.05-6.3Q45.05-4.3 46.2-3.48 47.35-2.65 49.35-2.65L49.35-2.65Q50.2-2.65 51.25-2.95 52.3-3.25 53-3.65L53-3.65Q53.3-3.35 53.55-2.9 53.8-2.45 53.8-1.85L53.8-1.85Q53.8-0.75 52.5-0.05 51.2 0.65 48.9 0.65L48.9 0.65Q45.4 0.65 43.22-0.9 41.05-2.45 41.05-6.05L41.05-6.05ZM52.2-19.3L43.1-19.3 43.1-22.6 53.25-22.6Q53.4-22.4 53.55-21.95 53.7-21.5 53.7-21L53.7-21Q53.7-20.2 53.3-19.75 52.9-19.3 52.2-19.3L52.2-19.3ZM45.05-28.35L45.05-11.7 41.05-11.7 41.05-29.8Q41.3-29.9 41.82-30.03 42.35-30.15 42.95-30.15L42.95-30.15Q44-30.15 44.52-29.73 45.05-29.3 45.05-28.35L45.05-28.35ZM59.64-6.05L59.64-13.2 63.64-13.2 63.64-6.3Q63.64-4.3 64.79-3.48 65.94-2.65 67.94-2.65L67.94-2.65Q68.79-2.65 69.84-2.95 70.89-3.25 71.59-3.65L71.59-3.65Q71.89-3.35 72.14-2.9 72.39-2.45 72.39-1.85L72.39-1.85Q72.39-0.75 71.09-0.05 69.79 0.65 67.49 0.65L67.49 0.65Q63.99 0.65 61.82-0.9 59.64-2.45 59.64-6.05L59.64-6.05ZM70.79-19.3L61.69-19.3 61.69-22.6 71.84-22.6Q71.99-22.4 72.14-21.95 72.29-21.5 72.29-21L72.29-21Q72.29-20.2 71.89-19.75 71.49-19.3 70.79-19.3L70.79-19.3ZM63.64-28.35L63.64-11.7 59.64-11.7 59.64-29.8Q59.89-29.9 60.42-30.03 60.94-30.15 61.54-30.15L61.54-30.15Q62.59-30.15 63.12-29.73 63.64-29.3 63.64-28.35L63.64-28.35ZM96.44-11.35L79.64-9 79.44-12.15 94.54-14.2Q94.34-16.95 92.64-18.73 90.94-20.5 87.94-20.5L87.94-20.5Q84.84-20.5 82.82-18.28 80.79-16.05 80.79-11.9L80.79-11.9 80.79-10.8Q81.14-6.8 83.42-4.73 85.69-2.65 89.64-2.65L89.64-2.65Q91.74-2.65 93.44-3.35 95.14-4.05 96.14-4.85L96.14-4.85Q96.69-4.5 97.02-4.03 97.34-3.55 97.34-2.95L97.34-2.95Q97.34-2 96.27-1.18 95.19-0.35 93.42 0.15 91.64 0.65 89.44 0.65L89.44 0.65Q85.59 0.65 82.77-0.75 79.94-2.15 78.42-4.93 76.89-7.7 76.89-11.7L76.89-11.7Q76.89-14.55 77.72-16.78 78.54-19 80.02-20.55 81.49-22.1 83.54-22.93 85.59-23.75 87.99-23.75L87.99-23.75Q91.04-23.75 93.37-22.45 95.69-21.15 97.02-18.82 98.34-16.5 98.34-13.5L98.34-13.5Q98.34-12.4 97.84-11.93 97.34-11.45 96.44-11.35L96.44-11.35ZM108.89-27.1L108.89-14.25 113.74-14.25Q117.74-14.25 119.94-15.93 122.14-17.6 122.14-21L122.14-21Q122.14-24.4 120.01-25.98 117.89-27.55 113.94-27.55L113.94-27.55Q112.59-27.55 111.26-27.43 109.94-27.3 108.89-27.1L108.89-27.1ZM113.99-10.85L113.99-10.85 104.84-10.85 104.84-28.2Q104.84-29 105.26-29.43 105.69-29.85 106.49-30.1L106.49-30.1Q107.94-30.55 110.01-30.75 112.09-30.95 114.04-30.95L114.04-30.95Q120.39-30.95 123.31-28.28 126.24-25.6 126.24-21.05L126.24-21.05Q126.24-17.95 124.91-15.65 123.59-13.35 120.89-12.1 118.19-10.85 113.99-10.85ZM104.84-1.6L104.84-12.8 108.94-12.8 108.94-0.1Q108.64 0 108.14 0.13 107.64 0.25 107.04 0.25L107.04 0.25Q105.94 0.25 105.39-0.2 104.84-0.65 104.84-1.6L104.84-1.6ZM153.94-11.55L153.94-11.55 153.94-11.55Q153.94-7.85 152.54-5.1 151.14-2.35 148.59-0.85 146.04 0.65 142.59 0.65L142.59 0.65Q139.14 0.65 136.56-0.85 133.99-2.35 132.59-5.1 131.19-7.85 131.19-11.55L131.19-11.55Q131.19-15.3 132.61-18.03 134.04-20.75 136.61-22.25 139.19-23.75 142.59-23.75L142.59-23.75Q145.99-23.75 148.54-22.25 151.09-20.75 152.51-18.03 153.94-15.3 153.94-11.55ZM142.59-20.45L142.59-20.45 142.59-20.45Q139.24-20.45 137.26-18.07 135.29-15.7 135.29-11.55L135.29-11.55Q135.29-7.35 137.21-5 139.14-2.65 142.59-2.65L142.59-2.65Q145.99-2.65 147.91-5.03 149.84-7.4 149.84-11.55L149.84-11.55Q149.84-15.7 147.91-18.07 145.99-20.45 142.59-20.45ZM176.43-6.15L176.43-6.15 176.43-6.15Q176.43-2.95 174.08-1.15 171.73 0.65 167.28 0.65L167.28 0.65Q163.48 0.65 161.08-0.53 158.68-1.7 158.68-3.1L158.68-3.1Q158.68-3.7 159.01-4.28 159.33-4.85 159.98-5.2L159.98-5.2Q161.33-4.25 163.13-3.45 164.93-2.65 167.23-2.65L167.23-2.65Q172.43-2.65 172.43-6.15L172.43-6.15Q172.43-7.6 171.56-8.53 170.68-9.45 168.98-9.85L168.98-9.85 164.83-10.95Q161.78-11.7 160.38-13.28 158.98-14.85 158.98-17.2L158.98-17.2Q158.98-19.85 161.13-21.8 163.28-23.75 167.68-23.75L167.68-23.75Q170.03-23.75 171.78-23.28 173.53-22.8 174.51-22.03 175.48-21.25 175.48-20.35L175.48-20.35Q175.48-19.7 175.16-19.2 174.83-18.7 174.28-18.45L174.28-18.45Q173.68-18.85 172.76-19.33 171.83-19.8 170.58-20.13 169.33-20.45 167.83-20.45L167.83-20.45Q165.63-20.45 164.28-19.6 162.93-18.75 162.93-17.2L162.93-17.2Q162.93-16.1 163.71-15.28 164.48-14.45 166.18-14.05L166.18-14.05 169.63-13.2Q173.03-12.4 174.73-10.68 176.43-8.95 176.43-6.15Z" opacity="1" transform="matrix(1,0,0,1,0,0)" fill="#6f605b" class="wordmark-text-0" data-fill-palette-color="primary" id="text-0"></path></svg></g></svg></g></svg></g></svg></g><g transform="matrix(1,0,0,1,104.27937777063448,0)"><svg viewBox="0 0 186.96124445873096 186.96124445873096" height="186.96124445873096" width="186.96124445873096"><g><svg></svg></g><g id="icon-0"><svg viewBox="0 0 186.96124445873096 186.96124445873096" height="186.96124445873096" width="186.96124445873096"><g><path d="M0 93.481c0-51.628 41.853-93.481 93.481-93.481 51.628 0 93.481 41.853 93.48 93.481 0 51.628-41.853 93.481-93.48 93.48-51.628 0-93.481-41.853-93.481-93.48zM93.481 180.037c47.804 0 86.556-38.752 86.556-86.556 0-47.804-38.752-86.556-86.556-86.556-47.804 0-86.556 38.752-86.556 86.556 0 47.804 38.752 86.556 86.556 86.556z" data-fill-palette-color="tertiary" fill="#6f605b" stroke="transparent"></path></g><g transform="matrix(1,0,0,1,39.38355820246745,51.79937536728081)"><svg viewBox="0 0 108.19412805379606 83.36249372416934" height="83.36249372416934" width="108.19412805379606"><g><svg version="1.1" xmlns="http://www.w3.org/2000/svg" xmlns:xlink="http://www.w3.org/1999/xlink" x="0" y="0" viewBox="0 0 100 77.049" enable-background="new 0 0 100 77.049" xml:space="preserve" width="108.19412805379606" height="83.36249372416934" class="icon-cg-0" data-fill-palette-color="accent" id="cg-0"><path fill="#f36527" d="M99.957 36.065c-0.859 22.779-19.59 40.984-42.58 40.984-11.67 0-22.237-4.696-29.932-12.297h-15.15C5.504 64.752 0 59.25 0 52.458c0-6.789 5.504-12.293 12.295-12.293h2.861c-0.181-1.347-0.285-2.718-0.342-4.1h-0.06v-4.917H100v4.917H99.957zM19.731 36.065c0.137 3.117 0.632 6.143 1.479 9.018h-8.915c-4.075 0-7.377 3.301-7.377 7.375 0 4.075 3.302 7.379 7.377 7.379h17.227c6.895 7.554 16.82 12.295 27.854 12.295 20.272 0 36.806-16.002 37.663-36.065L19.731 36.065 19.731 36.065z" data-fill-palette-color="accent"></path><path fill="#f36527" d="M63.936 21.311v-2.458c0-3.357-2.476-5.737-5.737-5.737-0.14 0.005-0.683 0-0.82 0-5.974 0-10.656-4.736-10.656-10.657V0h4.917v2.458c0 3.205 2.482 5.738 5.739 5.738 0.14-0.006 0.681 0 0.82 0 5.719 0 10.228 4.002 10.614 9.836h0.039v3.278L63.936 21.311 63.936 21.311z" data-fill-palette-color="accent"></path><path fill="#f36527" d="M50 21.311c-7.377 0-11.454-4.735-11.454-10.656h-0.021V8.196h4.918v2.458h0.02c0 3.204 3.281 5.737 6.537 5.737h2.46v4.918H50V21.311z" data-fill-palette-color="accent"></path><circle fill="#f36527" cx="13.114" cy="52.459" r="4.1" data-fill-palette-color="accent"></circle></svg></g></svg></g></svg></g></svg></g><g></g></svg></g><defs></defs></svg><rect width="325.9071851344531" height="247.2" fill="none" stroke="none" visibility="hidden"></rect></g></svg></g></svg>